<svg xmlns="http://www.w3.org/2000/svg" viewBox="0 0 64 64" id="social-chat">
  <g>
    <path fill="#168fd6" d="M21 57.2a.996.996 0 0 1-.538.888 18.18 18.18 0 0 1-16.93-.003c-.825-.384-.455-1.758-.532-2.662a5.786 5.786 0 0 1 5.625-5.935h6.75A5.786 5.786 0 0 1 21 55.423zm20 .356a.991.991 0 0 1-.556.898 17 17 0 0 1-14.889 0 1.006 1.006 0 0 1-.555-.902V56.17a5 5 0 0 1 5-5h6a5 5 0 0 1 5 5zm20 0a.991.991 0 0 1-.556.898 17 17 0 0 1-14.889 0 1.006 1.006 0 0 1-.555-.902V56.17a5 5 0 0 1 5-5h6a5 5 0 0 1 5 5z"></path>
    <path d="M12.87 52.334h-.748a2 2 0 0 1-2-2v-2.748h4.747v2.748a2 2 0 0 1-2 2zm20.476 1.495h-.692A1.654 1.654 0 0 1 31 52.175V49.83h4v2.346a1.654 1.654 0 0 1-1.654 1.654zm20.117 0h-.926A1.537 1.537 0 0 1 51 52.292V49.83h4v2.463a1.537 1.537 0 0 1-1.537 1.537z" opacity=".1"></path>
    <path fill="#ccdde7" d="M14.87 46.59v2.74a2 2 0 0 1-2 2h-.75a2 2 0 0 1-2-2v-2.74zM35 48.83v2.35a1.652 1.652 0 0 1-1.65 1.65h-.7A1.652 1.652 0 0 1 31 51.18v-2.35zm20 0v2.46a1.54 1.54 0 0 1-1.54 1.54h-.92A1.54 1.54 0 0 1 51 51.29v-2.46z"></path>
    <path fill="#044388" d="M54.28 27.04a.502.502 0 0 1-.47.76c-2.65-.14-4.08-.87-4.83-1.69-9.5 4.554-25.017-.302-24.98-10.28.415-7.896 8.418-11.879 16.5-12 12.94-.25 22.32 11.551 12.32 19.96a13.85 13.85 0 0 0 1.46 3.25Z"></path>
    <path d="M35 48.83v1.88a4.026 4.026 0 0 1-4-1.25v-.63zm20 0v1.88a4.026 4.026 0 0 1-4-1.25v-.63zm-40.13-2.24v2.48a4.793 4.793 0 0 1-4.75-1.24v-1.24z" opacity=".1"></path>
    <path fill="#ccdde7" d="M37.48 46.308c-1.105 6.035-7.869 6.001-8.966.001a1.503 1.503 0 1 1 0-2.957v-2.133a6.4 6.4 0 0 1 8.972 0v2.133a1.503 1.503 0 1 1-.006 2.956zm20 0c-1.105 6.035-7.869 6.001-8.966.001a1.503 1.503 0 1 1 0-2.957v-2.133a6.75 6.75 0 0 1 8.972 0v2.133a1.503 1.503 0 1 1-.006 2.956zm-39.668-2.416c-1.343 7.177-9.307 7.137-10.641.003a1.784 1.784 0 1 1 0-3.511v-2.531a7.665 7.665 0 0 1 10.65 0v2.53a1.784 1.784 0 1 1-.009 3.51z"></path>
    <path fill="#044388" d="M37.34 44.875c-.403-2.954-1.046-3.654-1.558-3.748-.62-.115-.86.694-1.963 1.022-1.782.528-3.014-1.034-4.1-.511-.498.24-1.053.957-1.06 3.237 0-.916-.464-2.832-.464-3.748a3.174 3.174 0 0 1 3.035-3.298h3.54a3.174 3.174 0 0 1 3.035 3.298zm20 0c-.403-2.954-1.046-3.654-1.558-3.748-.62-.115-.86.694-1.963 1.022-1.782.528-3.014-1.034-4.1-.511-.498.24-1.053.957-1.06 3.237 0-.916-.464-2.832-.464-3.748a3.174 3.174 0 0 1 3.035-3.298h3.54a3.174 3.174 0 0 1 3.035 3.298z"></path>
    <path fill="#168fd6" d="M17.49 43.005c.062-.393.446-3.053-1.272-4.686a2.822 2.822 0 0 0-1.963-.958c-1.18.053-1.364 1.244-2.776 1.628-1.376.374-2.066-.522-2.905-.112-.598.293-1.205 1.218-1.072 4.128 0-1.088-.71-4.175-.71-5.262a3.768 3.768 0 0 1 3.602-3.914h4.203a3.768 3.768 0 0 1 3.602 3.914Z"></path>
    <path d="M46 20.83a9.892 9.892 0 0 1-2.95 6.85c-12.31 1.785-25.034-8.884-16.09-18.71C36.087 7.69 46.269 13.415 46 20.83Z" opacity=".1"></path>
    <path fill="#168fd6" d="M17.183 30.795c-10-8.408-.631-20.216 12.317-19.965 9.113 0 16.5 5.372 16.5 12-.009 10.04-15.498 14.81-24.976 10.28-.758.82-2.181 1.55-4.838 1.694a.504.504 0 0 1-.466-.76 14.293 14.293 0 0 0 1.463-3.25Z"></path>
    <path fill="#fff" d="M41.6 24.83h-1a1 1 0 0 1 0-2h1a1 1 0 0 1 0 2zm-5.037 0h-2.018a1 1 0 0 1 0-2h2.018a1 1 0 0 1 0 2zm-6.054 0H28.49a1 1 0 0 1 0-2h2.018a1 1 0 0 1 0 2zm-6.055 0h-2.017a1 1 0 0 1 0-2h2.017a1 1 0 0 1 0 2zm-6.054 0h-1a1 1 0 0 1 0-2h1a1 1 0 0 1 0 2z"></path>
  </g>
</svg>
